<?xml version="1.0" encoding="UTF-8"?>
<svg xmlns="http://www.w3.org/2000/svg" xmlns:xlink="http://www.w3.org/1999/xlink" version="1.1" viewBox="0 0 841.89 595.28">
  <!-- Generator: Adobe Illustrator 29.5.1, SVG Export Plug-In . SVG Version: 2.1.0 Build 141)  -->
  <defs>
    <style>
      .st0 {
        filter: url(#drop-shadow-3);
      }

      .st1 {
        filter: url(#drop-shadow-2);
      }

      .st2 {
        fill: #003b54;
      }

      .st3 {
        fill: #512d70;
      }

      .st4 {
        filter: url(#drop-shadow-1);
      }

      .st4, .st5 {
        fill: #d2b03f;
      }

      .st6 {
        fill: #e3294a;
      }

      .st7 {
        display: none;
      }
    </style>
    <filter id="drop-shadow-1" x="291.19" y="103.99" width="258.72" height="261.36" filterUnits="userSpaceOnUse">
      <feOffset dx="1.13" dy="1.7"/>
      <feGaussianBlur result="blur" stdDeviation="1.42"/>
      <feFlood flood-color="#000" flood-opacity=".6"/>
      <feComposite in2="blur" operator="in"/>
      <feComposite in="SourceGraphic"/>
    </filter>
    <filter id="drop-shadow-2" x="247.75" y="384.55" width="349.44" height="79.44" filterUnits="userSpaceOnUse">
      <feOffset dx="1.13" dy="1.7"/>
      <feGaussianBlur result="blur1" stdDeviation="1.42"/>
      <feFlood flood-color="#000" flood-opacity=".6"/>
      <feComposite in2="blur1" operator="in"/>
      <feComposite in="SourceGraphic"/>
    </filter>
    <filter id="drop-shadow-3" x="247.75" y="463.75" width="348.96" height="31.92" filterUnits="userSpaceOnUse">
      <feOffset dx="1.13" dy="1.7"/>
      <feGaussianBlur result="blur2" stdDeviation="1.42"/>
      <feFlood flood-color="#000" flood-opacity=".6"/>
      <feComposite in2="blur2" operator="in"/>
      <feComposite in="SourceGraphic"/>
    </filter>
  </defs>
  <g id="varjo" class="st7">
    <path class="st4" d="M419.31,106.65c-68.96,0-124.86,56.52-124.86,126.24s55.9,126.24,124.86,126.24,124.86-56.52,124.86-126.24-55.9-126.24-124.86-126.24ZM472.1,336.07c-12.97-3.91-21.04-10.37-26.14-16.1-5.16-5.78-8.05-19.62-7.92-26.66.13-7.04,4.9-13.71,9.18-18.86,4.28-5.16,10.56-9.93,15.97-14.21,5.41-4.28,14.59-9.93,20.25-12.95,4.53-.25,6.34.26,11-1.25,4.65-1.51,9.03-4.01,12.8-7.66,3.77-3.65,8.41-11.79,11.18-19.71-2.01-1.01-7.68-1.91-12.85-1.81-7.28.14-14.07,2.14-19.35,5.77-5.58,3.84-9.96,10.47-10.69,18.92,2.26-2.39,4.34-3.37,8.49-6.26,4.15-2.89,12.5-6.62,17.65-7.62-7.67,3.25-13.55,7.91-17.1,11.45-3.93,3.91-9.69,7.73-15.72,11.44-6.42,3.94-14.46,6.92-18.99,9.19,2.76-2.87,7.36-8.05,10.95-13.18,3.55-5.08,9.45-14.94,13.2-21.53,3.85-6.77,5.45-10.34,9.27-12.66,4.47-1.22,12.52-2.89,17.08-7.34,4.77-4.67,9.1-15.96,9.35-24.38-4.66-.07-10.41.24-15.57,1.25-5.16,1.01-10.44,4.9-13.46,8.8s-4.62,12.13-3.35,15.78c3.4-5.03,13.6-11.63,18.44-13.51-3.89,2.25-8.55,6.41-11.19,9.31s-10.89,13.75-14.73,18.95c.38-3.02,1-8.77.75-14.55-.24-5.58-1.01-11.26-.65-17.58,2.42-1.99,10.26-7.78,14.25-15.24,3.43-6.41,2.77-16.83,1.26-22.87-3.38.61-5.76,1.27-9.81,2.88-6.69,2.64-9.65,5.76-13.77,12.4-3.45,5.58-1.78,15.49,2.01,18.19,1.78-9.59,8.24-16.49,12.18-20.02.1-.09.19.04.11.14-4.11,5.15-6.8,10.38-9.08,19.21-1.56,6.03-1.15,14.84-.77,24.21.64,15.93-2.62,19.64-3.66,22.19-1.92,4.68-6.84,13.22-15.91,21.17-.17-3.03-.52-9.11-.52-15.52s1.37-11.56,2.63-16.71c.3,2.16-.21,16.98-.12,19.29,7.44-4,10.87-14.06,10.98-20.76.09-6.05-1.86-14.51-4.28-19.72-3.52,1.98-6.25,4.69-10.05,8.56-4.84,4.93-8.35,11.12-8.48,18.66s2.81,12.4,4.57,17.8c1.76,5.41,1.7,9.48.08,12.76-2.74,5.54-8.26,10.26-11.24,15.15-5.67,9.32-11.44,20.37-6.79,39.07,4.08,16.42,15.18,27.97,32.8,32.95-11.61,3.99-24.06,6.16-37.01,6.16s-25.5-2.19-37.16-6.22c17.51-5.01,28.55-16.53,32.62-32.89,4.65-18.7-1.12-29.75-6.79-39.07-2.98-4.9-8.5-9.62-11.24-15.15-1.62-3.28-1.68-7.35.08-12.76,1.76-5.41,4.7-10.26,4.57-17.8-.13-7.55-3.64-13.73-8.48-18.66-3.8-3.87-6.52-6.57-10.05-8.56-2.42,5.21-4.37,13.67-4.28,19.72.1,6.7,3.53,16.76,10.98,20.76.1-2.32-.42-17.13-.12-19.29,1.26,5.16,2.63,10.3,2.63,16.71s-.35,12.49-.52,15.52c-9.07-7.95-13.98-16.49-15.91-21.17-1.05-2.55-4.3-6.26-3.66-22.19.38-9.37.79-18.18-.77-24.21-2.29-8.84-4.97-14.06-9.08-19.21-.08-.1,0-.23.11-.14,3.95,3.53,10.41,10.42,12.18,20.02,3.78-2.7,5.46-12.62,2.01-18.19-4.12-6.65-7.08-9.76-13.77-12.4-4.06-1.6-6.43-2.27-9.81-2.88-1.51,6.04-2.17,16.46,1.26,22.87,3.99,7.46,11.82,13.25,14.25,15.24.36,6.32-.4,12-.65,17.58-.25,5.78.37,11.53.75,14.55-3.84-5.2-12.09-16.05-14.73-18.95s-7.3-7.06-11.19-9.31c4.83,1.88,15.04,8.48,18.44,13.51,1.27-3.65-.33-11.88-3.35-15.78-3.02-3.9-8.3-7.8-13.46-8.8-5.16-1.01-10.91-1.32-15.57-1.25.25,8.43,4.58,19.72,9.35,24.38,4.56,4.46,12.61,6.12,17.08,7.34,3.82,2.32,5.42,5.89,9.27,12.66,3.75,6.59,9.65,16.44,13.2,21.53,3.58,5.13,8.18,10.31,10.95,13.18-4.53-2.26-12.57-5.24-18.99-9.19-6.03-3.71-11.8-7.53-15.72-11.44-3.55-3.54-9.43-8.2-17.1-11.45,5.16,1.01,13.5,4.73,17.65,7.62,4.15,2.89,6.23,3.87,8.49,6.26-.73-8.46-5.11-15.08-10.69-18.92-5.28-3.63-12.07-5.63-19.35-5.77-5.17-.1-10.83.81-12.85,1.81,2.77,7.92,7.41,16.06,11.18,19.71,3.77,3.65,8.15,6.15,12.8,7.66,4.65,1.51,6.47,1,11,1.25,5.66,3.02,14.84,8.68,20.25,12.95,5.41,4.28,11.7,9.05,15.97,14.21,4.28,5.16,9.05,11.82,9.18,18.86.13,7.04-2.77,20.88-7.92,26.66-5.08,5.7-13.09,12.12-25.94,16.03-36.81-19.35-61.96-58.26-61.96-103.11,0-64.14,51.43-116.14,114.88-116.14s114.88,52,114.88,116.14c0,44.9-25.2,83.84-62.08,103.17Z"/>
    <g class="st1">
      <path class="st5" d="M253.45,445.87v-2.23c1.65-.77,2.99-1.57,4.04-2.39.17-1.15.3-3.02.41-5.61.22-4.72.33-8.16.33-10.3v-18.54c0-.71-.04-3.39-.12-8.04-.08-3.1-.27-5-.58-5.69-.14-.27-.34-.48-.62-.62-.74-.33-2.72-.58-5.93-.74v-3.5l9.56.21c1.9.03,3.71.04,5.44.04,3.76,0,7.95-.04,12.57-.12l8.37-.21c.99,0,2.99.06,6.02.17.27,0,.73.08,1.36.25l.29.54-.78,5.93c-.03.41-.17,2.39-.41,5.93h-3.21c-.06-3.24-.18-5.23-.37-5.98-.11-.38-.27-.66-.49-.82-.36-.25-1.46-.47-3.3-.66-2.72-.3-5.39-.45-7.99-.45-2.45,0-4.95.1-7.5.29-.39,3.11-.58,7.05-.58,11.83v8.45c1.87.14,3.82.21,5.85.21.63,0,2.91-.05,6.84-.16,1.48-.03,2.36-.12,2.62-.29.26-.17.46-.45.6-.87.33-1.04.52-2.79.58-5.23h3.34l-.17,9.07.17,9.02h-3.54c.03-3.19-.18-5.15-.62-5.89-.33-.55-.92-.89-1.77-1.03-1.9-.3-4.33-.45-7.29-.45-2.67,0-4.86.08-6.59.25v17.47c0,1.95.04,3.63.12,5.03,2.23.17,4.86.25,7.91.25s5.71-.1,8.22-.29,4.06-.47,4.64-.82c.19-.11.37-.36.54-.74.49-1.32,1.02-3.82,1.57-7.5h3.38c-.6,5.44-.91,9.92-.91,13.43l-.54.54c-1.76.19-4.26.29-7.5.29l-6.63-.12c-6.54-.08-11.04-.12-13.52-.12-.66,0-5.25.08-13.76.25Z"/>
      <path class="st5" d="M375.08,391.64v-3.42l13.39.25,5.56-.08,5.56-.12,1.52-.04v3.42c-2.97,0-4.85.26-5.65.78-.41.25-.69.73-.82,1.44-.38,1.7-.58,5.45-.58,11.25v9.56l.04,4.82c0,5.03.05,8.13.17,9.31.25,2.58.89,4.66,1.94,6.24,1.04,1.58,2.64,2.86,4.8,3.83,2.16.98,4.9,1.46,8.22,1.46,3.82,0,6.86-.65,9.13-1.96s3.88-3,4.84-5.09c.96-2.09,1.44-6.06,1.44-11.91v-8.41c0-7.25-.01-11.68-.04-13.27-.08-3.46-.27-5.55-.58-6.26-.19-.44-.51-.77-.95-.99-.91-.47-2.88-.74-5.93-.82v-3.42c4.97.19,7.93.29,8.86.29.25,0,.62-.01,1.11-.04l9.15-.25v3.42c-2.55,0-4.16.21-4.82.62-.33.22-.6.64-.8,1.26s-.41,3.4-.6,8.34c-.19,4.95-.29,8.85-.29,11.7v9.68c0,2.47-.18,5.03-.54,7.67-.36,2.64-1.08,4.89-2.16,6.76-1.08,1.87-2.62,3.56-4.59,5.07s-4.33,2.65-7.05,3.42c-2.72.77-5.87,1.15-9.44,1.15-4.18,0-8.08-.56-11.7-1.69-2.64-.82-4.79-1.93-6.47-3.32-1.68-1.39-2.95-2.94-3.83-4.66-.88-1.72-1.42-3.37-1.61-4.97-.14-.99-.21-3.65-.21-8l.04-7.91v-10.47c0-3.85-.08-7.31-.25-10.38-.08-1.21-.25-2.09-.49-2.64-.14-.3-.48-.66-1.03-1.07l-5.36-.58Z"/>
      <path class="st5" d="M472.39,388.22v3.63c-2.78.08-4.42.19-4.95.31-.52.12-.89.28-1.11.45-.22.18-.37.41-.45.68-.19.47-.33,1.36-.41,2.68-.06.71-.1,2.06-.12,4.04-.11,6.76-.17,10.4-.17,10.92v16.61l.12,7.54c0,2.83.14,4.67.41,5.52.11.39.29.68.56.89.26.21.67.37,1.24.49.56.12,2.19.21,4.88.27v3.63c-4.48-.17-9.26-.25-14.34-.25-4.42,0-8.37.08-11.83.25v-3.63c2.86-.11,4.51-.21,4.95-.29.58-.11.97-.26,1.17-.45s.34-.41.39-.66c.08-.33.19-1.62.33-3.87.22-3.3.33-6.35.33-9.15v-17.23c0-5.47-.03-8.98-.08-10.55-.14-3.49-.3-5.67-.5-6.55-.08-.36-.21-.63-.39-.82s-.51-.35-.99-.47c-.48-.12-2.22-.24-5.21-.35v-3.63c3.46.17,7.43.25,11.91.25,5.03,0,9.78-.08,14.26-.25Z"/>
      <path class="st5" d="M492.01,445.87v-3.38c3.3-.11,5.25-.33,5.87-.66.62-.33,1.04-.88,1.26-1.65.3-1.18.45-4.74.45-10.67v-24.69c0-6.73-.04-10.5-.12-11.29h-5.89c-2.97,0-5.58.1-7.83.29-.91.08-1.43.19-1.57.33-.19.17-.36.65-.49,1.44-.36,1.92-.56,4.08-.62,6.47h-3.42c-.11-5.63-.18-8.8-.21-9.52-.08-1.21-.22-2.51-.41-3.92l.37-.41c1.29.14,2.66.23,4.12.29,2.36.08,6.91.12,13.64.12h16.65c6.92,0,11.55-.04,13.89-.12,1.26-.05,2.54-.15,3.83-.29l.41.41c-.25,1.68-.4,3.15-.45,4.41-.03.22-.08,3.23-.17,9.02h-3.42c-.06-2.14-.23-4.19-.54-6.14-.17-.99-.34-1.58-.54-1.77-.17-.14-.6-.23-1.32-.29-2.25-.22-4.96-.33-8.12-.33h-5.89c-.08.96-.12,4.73-.12,11.29v24.69c0,5.93.15,9.51.45,10.71.19.71.6,1.24,1.24,1.59.63.34,2.6.57,5.89.68v3.38c-5.33-.25-9.82-.37-13.48-.37-3.9,0-8.39.12-13.48.37Z"/>
      <path class="st5" d="M529.85,445.87v-3.42c2.23-.16,3.55-.31,3.98-.43.43-.12.79-.32,1.09-.58.3-.26.61-.67.93-1.24.32-.56,1.26-2.66,2.82-6.29.71-1.7,2.09-5.07,4.12-10.1l10.76-26.54,3.63-9.35h5.85l18.42,43.02,2.56,5.65,1.65,3.79c.27.5.54.85.78,1.07.25.22.53.38.85.49.32.11,1.12.21,2.41.29.41.06,1.02.12,1.81.21v3.42l-11.46-.25-14.46.25v-3.42c3.32-.14,5.2-.32,5.63-.56.42-.23.64-.62.64-1.17,0-.69-.32-1.81-.95-3.38l-3.54-9.07h-21.18l-1.81,4.95c-1.37,3.79-2.06,6.15-2.06,7.09,0,.66.22,1.13.66,1.4.66.38,2.62.63,5.89.74v3.42l-9.52-.25-9.48.25ZM548.06,423.58c2.58.08,5.51.12,8.78.12s5.99-.04,8.49-.12l-8.82-21.26-8.45,21.26Z"/>
      <path class="st5" d="M371.81,451.98c-6.17.27-11.82,0-15.73-1.86-3.86-1.83-4.63-2.89-7.2-4.64,4.5-1.4,8.33-3.67,11.51-6.82,5.7-5.66,8.55-13.39,8.55-23.2,0-5.19-.87-9.62-2.6-13.27-1.26-2.69-3.16-5.23-5.69-7.6-2.53-2.38-5.58-4.2-9.17-5.46s-7.93-1.9-13.04-1.9c-5.41,0-10.23.77-14.46,2.31-3.13,1.15-6.09,3.03-8.86,5.62-2.78,2.6-4.91,5.74-6.41,9.44-1.5,3.7-2.25,8.02-2.25,12.96,0,5.44.95,10.25,2.84,14.42,1.24,2.72,3.02,5.23,5.36,7.52,2.33,2.29,5.36,4.14,9.07,5.54,2.53.96,5.39,1.58,8.55,1.88-.96.75-1.62,1.02-2.68,1.4v1.93c3.32-.07,6.9.07,8.9.13,2.63.55,6.24,2.79,11.48,4.71,4.97,1.83,7.63,3.32,13.81,2.39,3.88-.58,6.84-2.85,7.97-4.31.13-.6,1.06-1.19.07-1.19ZM324.01,435.3c-3.27-4.88-4.9-11.48-4.9-19.8,0-3.79.4-7.2,1.22-10.22.81-3.02,1.95-5.47,3.42-7.34,1.47-1.87,3.14-3.27,5.01-4.2,2.5-1.24,5.38-1.85,8.65-1.85,3.63,0,6.57.65,8.84,1.94,2.27,1.29,4.15,3.14,5.65,5.54,1.5,2.4,2.6,5.22,3.32,8.45.71,3.23,1.07,6.59,1.07,10.08,0,5.58-.78,10.28-2.33,14.09-1.55,3.82-3.7,6.55-6.45,8.18-2.75,1.63-5.8,2.45-9.15,2.45-6.29,0-11.07-2.44-14.34-7.31Z"/>
    </g>
    <g class="st0">
      <path class="st5" d="M257.71,470.48h-6.69v-3.39h17.25v3.39h-6.69v18.43h-3.88v-18.43Z"/>
      <path class="st5" d="M280.51,467.09h3.36l9.4,21.81h-4.44l-2.03-4.99h-9.46l-1.97,4.99h-4.34l9.49-21.81ZM285.44,480.59l-3.36-8.87-3.42,8.87h6.78Z"/>
      <path class="st5" d="M300.14,467.09h3.88v18.36h9.27v3.45h-13.16v-21.81Z"/>
      <path class="st5" d="M320.59,467.09h14.45v3.39h-10.57v5.55h10.01v3.27h-10.01v6.16h11.12v3.45h-15v-21.81Z"/>
      <path class="st5" d="M344.1,467.09h5.15l10.14,16.33h.06v-16.33h3.88v21.81h-4.93l-10.35-16.85h-.06v16.85h-3.88v-21.81Z"/>
      <path class="st5" d="M377.25,470.48h-6.69v-3.39h17.25v3.39h-6.69v18.43h-3.88v-18.43Z"/>
      <path class="st5" d="M406.74,467.09h7.12c1.25,0,2.38.11,3.39.34,1.01.23,1.87.6,2.59,1.11s1.27,1.17,1.66,1.97c.39.8.59,1.77.59,2.9,0,1.21-.23,2.23-.68,3.05-.45.82-1.06,1.48-1.83,1.99-.77.5-1.67.87-2.7,1.09-1.03.23-2.12.34-3.27.34h-2.99v9.03h-3.88v-21.81ZM413.33,476.61c.64,0,1.24-.05,1.82-.14.58-.09,1.09-.26,1.54-.49.45-.24.81-.56,1.08-.97.27-.41.4-.94.4-1.6s-.13-1.16-.4-1.56c-.27-.4-.62-.71-1.06-.94-.44-.23-.94-.38-1.51-.45-.56-.07-1.15-.11-1.74-.11h-2.83v6.26h2.71Z"/>
      <path class="st5" d="M435.24,467.09h3.36l9.4,21.81h-4.44l-2.03-4.99h-9.46l-1.97,4.99h-4.34l9.49-21.81ZM440.17,480.59l-3.36-8.87-3.42,8.87h6.78Z"/>
      <path class="st5" d="M454.86,467.09h7.58c1.03,0,2.02.11,2.99.32.97.22,1.82.57,2.57,1.06.75.49,1.35,1.14,1.8,1.94.45.8.68,1.78.68,2.93,0,1.58-.45,2.87-1.34,3.87s-2.11,1.67-3.65,2.02l5.82,9.67h-4.68l-5.05-9.24h-2.83v9.24h-3.88v-21.81ZM461.92,476.49c.55,0,1.11-.04,1.66-.12.55-.08,1.05-.24,1.5-.46.44-.23.81-.55,1.09-.97.29-.42.43-.96.43-1.62,0-.6-.13-1.08-.4-1.46-.27-.38-.61-.68-1.02-.91-.41-.23-.88-.38-1.4-.46-.52-.08-1.03-.12-1.53-.12h-3.51v6.13h3.17Z"/>
      <path class="st5" d="M482.99,470.48h-6.69v-3.39h17.25v3.39h-6.69v18.43h-3.88v-18.43Z"/>
      <path class="st5" d="M500.8,467.09h5.15l10.14,16.33h.06v-16.33h3.88v21.81h-4.93l-10.35-16.85h-.06v16.85h-3.88v-21.81Z"/>
      <path class="st5" d="M529.55,467.09h14.45v3.39h-10.57v5.55h10.01v3.27h-10.01v6.16h11.12v3.45h-15v-21.81Z"/>
      <path class="st5" d="M553.06,467.09h7.58c1.03,0,2.02.11,2.99.32.97.22,1.82.57,2.57,1.06.75.49,1.35,1.14,1.8,1.94.45.8.68,1.78.68,2.93,0,1.58-.45,2.87-1.34,3.87s-2.11,1.67-3.65,2.02l5.82,9.67h-4.68l-5.05-9.24h-2.83v9.24h-3.88v-21.81ZM560.11,476.49c.55,0,1.11-.04,1.66-.12.55-.08,1.05-.24,1.5-.46.44-.23.81-.55,1.09-.97.29-.42.43-.96.43-1.62,0-.6-.13-1.08-.4-1.46-.27-.38-.61-.68-1.02-.91-.41-.23-.88-.38-1.4-.46-.52-.08-1.03-.12-1.53-.12h-3.51v6.13h3.17Z"/>
      <path class="st5" d="M588.27,471.65c-.41-.53-.99-.98-1.74-1.34-.75-.36-1.5-.54-2.26-.54-.45,0-.9.06-1.36.17-.45.11-.86.29-1.23.52-.37.24-.67.54-.91.92-.24.38-.35.84-.35,1.37,0,.49.1.91.31,1.26.21.35.49.65.85.89.36.25.8.46,1.31.65s1.08.37,1.69.55c.7.23,1.42.48,2.17.77.75.29,1.44.67,2.06,1.14.63.47,1.14,1.07,1.54,1.79s.6,1.61.6,2.68c0,1.17-.22,2.19-.65,3.07-.43.87-1.01,1.6-1.73,2.17-.72.58-1.56,1.01-2.53,1.29-.97.29-1.98.43-3.05.43-1.42,0-2.8-.26-4.16-.79-1.36-.52-2.46-1.3-3.33-2.33l2.77-2.59c.53.74,1.25,1.33,2.14,1.76.89.43,1.77.65,2.63.65.45,0,.91-.06,1.39-.17.47-.11.9-.3,1.28-.57s.69-.6.92-1c.24-.4.35-.9.35-1.5s-.13-1.05-.4-1.43c-.27-.38-.63-.71-1.08-.99s-.99-.52-1.6-.72c-.62-.21-1.26-.42-1.94-.65-.66-.21-1.31-.45-1.97-.74-.66-.29-1.25-.67-1.77-1.14-.52-.47-.95-1.05-1.28-1.74-.33-.69-.49-1.55-.49-2.57,0-1.11.23-2.06.69-2.87.46-.8,1.07-1.46,1.82-1.99.75-.52,1.6-.91,2.56-1.17.96-.26,1.93-.38,2.91-.38,1.11,0,2.23.2,3.37.58,1.14.39,2.13.98,2.97,1.76l-2.53,2.77Z"/>
    </g>
  </g>
  <g id="logo">
    <path class="st3" d="M419.31,106.65c-68.96,0-124.86,56.52-124.86,126.24s55.9,126.24,124.86,126.24,124.86-56.52,124.86-126.24-55.9-126.24-124.86-126.24Z"/>
    <path class="st5" d="M419.31,106.65c-68.96,0-124.86,56.52-124.86,126.24s55.9,126.24,124.86,126.24,124.86-56.52,124.86-126.24-55.9-126.24-124.86-126.24ZM472.1,336.07c-12.97-3.91-21.04-10.37-26.14-16.1-5.16-5.78-8.05-19.62-7.92-26.66.13-7.04,4.9-13.71,9.18-18.86,4.28-5.16,10.56-9.93,15.97-14.21,5.41-4.28,14.59-9.93,20.25-12.95,4.53-.25,6.34.26,11-1.25,4.65-1.51,9.03-4.01,12.8-7.66,3.77-3.65,8.41-11.79,11.18-19.71-2.01-1.01-7.68-1.91-12.85-1.81-7.28.14-14.07,2.14-19.35,5.77-5.58,3.84-9.96,10.47-10.69,18.92,2.26-2.39,4.34-3.37,8.49-6.26,4.15-2.89,12.5-6.62,17.65-7.62-7.67,3.25-13.55,7.91-17.1,11.45-3.93,3.91-9.69,7.73-15.72,11.44-6.42,3.94-14.46,6.92-18.99,9.19,2.76-2.87,7.36-8.05,10.95-13.18,3.55-5.08,9.45-14.94,13.2-21.53,3.85-6.77,5.45-10.34,9.27-12.66,4.47-1.22,12.52-2.89,17.08-7.34,4.77-4.67,9.1-15.96,9.35-24.38-4.66-.07-10.41.24-15.57,1.25-5.16,1.01-10.44,4.9-13.46,8.8s-4.62,12.13-3.35,15.78c3.4-5.03,13.6-11.63,18.44-13.51-3.89,2.25-8.55,6.41-11.19,9.31s-10.89,13.75-14.73,18.95c.38-3.02,1-8.77.75-14.55-.24-5.58-1.01-11.26-.65-17.58,2.42-1.99,10.26-7.78,14.25-15.24,3.43-6.41,2.77-16.83,1.26-22.87-3.38.61-5.76,1.27-9.81,2.88-6.69,2.64-9.65,5.76-13.77,12.4-3.45,5.58-1.78,15.49,2.01,18.19,1.78-9.59,8.24-16.49,12.18-20.02.1-.09.19.04.11.14-4.11,5.15-6.8,10.38-9.08,19.21-1.56,6.03-1.15,14.84-.77,24.21.64,15.93-2.62,19.64-3.66,22.19-1.92,4.68-6.84,13.22-15.91,21.17-.17-3.03-.52-9.11-.52-15.52s1.37-11.56,2.63-16.71c.3,2.16-.21,16.98-.12,19.29,7.44-4,10.87-14.06,10.98-20.76.09-6.05-1.86-14.51-4.28-19.72-3.52,1.98-6.25,4.69-10.05,8.56-4.84,4.93-8.35,11.12-8.48,18.66s2.81,12.4,4.57,17.8c1.76,5.41,1.7,9.48.08,12.76-2.74,5.54-8.26,10.26-11.24,15.15-5.67,9.32-11.44,20.37-6.79,39.07,4.08,16.42,15.18,27.97,32.8,32.95-11.61,3.99-24.06,6.16-37.01,6.16s-25.5-2.19-37.16-6.22c17.51-5.01,28.55-16.53,32.62-32.89,4.65-18.7-1.12-29.75-6.79-39.07-2.98-4.9-8.5-9.62-11.24-15.15-1.62-3.28-1.68-7.35.08-12.76,1.76-5.41,4.7-10.26,4.57-17.8-.13-7.55-3.64-13.73-8.48-18.66-3.8-3.87-6.52-6.57-10.05-8.56-2.42,5.21-4.37,13.67-4.28,19.72.1,6.7,3.53,16.76,10.98,20.76.1-2.32-.42-17.13-.12-19.29,1.26,5.16,2.63,10.3,2.63,16.71s-.35,12.49-.52,15.52c-9.07-7.95-13.98-16.49-15.91-21.17-1.05-2.55-4.3-6.26-3.66-22.19.38-9.37.79-18.18-.77-24.21-2.29-8.84-4.97-14.06-9.08-19.21-.08-.1,0-.23.11-.14,3.95,3.53,10.41,10.42,12.18,20.02,3.78-2.7,5.46-12.62,2.01-18.19-4.12-6.65-7.08-9.76-13.77-12.4-4.06-1.6-6.43-2.27-9.81-2.88-1.51,6.04-2.17,16.46,1.26,22.87,3.99,7.46,11.82,13.25,14.25,15.24.36,6.32-.4,12-.65,17.58-.25,5.78.37,11.53.75,14.55-3.84-5.2-12.09-16.05-14.73-18.95s-7.3-7.06-11.19-9.31c4.83,1.88,15.04,8.48,18.44,13.51,1.27-3.65-.33-11.88-3.35-15.78-3.02-3.9-8.3-7.8-13.46-8.8-5.16-1.01-10.91-1.32-15.57-1.25.25,8.43,4.58,19.72,9.35,24.38,4.56,4.46,12.61,6.12,17.08,7.34,3.82,2.32,5.42,5.89,9.27,12.66,3.75,6.59,9.65,16.44,13.2,21.53,3.58,5.13,8.18,10.31,10.95,13.18-4.53-2.26-12.57-5.24-18.99-9.19-6.03-3.71-11.8-7.53-15.72-11.44-3.55-3.54-9.43-8.2-17.1-11.45,5.16,1.01,13.5,4.73,17.65,7.62,4.15,2.89,6.23,3.87,8.49,6.26-.73-8.46-5.11-15.08-10.69-18.92-5.28-3.63-12.07-5.63-19.35-5.77-5.17-.1-10.83.81-12.85,1.81,2.77,7.92,7.41,16.06,11.18,19.71,3.77,3.65,8.15,6.15,12.8,7.66,4.65,1.51,6.47,1,11,1.25,5.66,3.02,14.84,8.68,20.25,12.95,5.41,4.28,11.7,9.05,15.97,14.21,4.28,5.16,9.05,11.82,9.18,18.86.13,7.04-2.77,20.88-7.92,26.66-5.08,5.7-13.09,12.12-25.94,16.03-36.81-19.35-61.96-58.26-61.96-103.11,0-64.14,51.43-116.14,114.88-116.14s114.88,52,114.88,116.14c0,44.9-25.2,83.84-62.08,103.17Z"/>
    <path class="st5" d="M418.95,201.09c2.51-5.72,7.81-10.52,11.63-13.21,5.63-3.95,16.88-7.26,26.74-7.44-6.05,5.77-8.7,7.53-13.35,12.37s-10.84,14.47-15.81,28.14c-4.28,11.76-4.88,28.51-6.28,39.12-1.4,10.6-1.76,13.58-2.88,13.58-1.12,0-1.57-2.98-2.96-13.58s-2-27.36-6.28-39.12c-4.98-13.67-11.16-23.3-15.81-28.14s-7.3-6.6-13.35-12.37c9.86.19,21.12,3.49,26.74,7.44,3.82,2.69,9.12,7.49,11.63,13.21"/>
    <path class="st5" d="M372.66,267.58c-4,4.7-14.1,10.41-22.98,9.17s-19.42-7.23-23.65-12.7c5.88-5.37,16.18-9.17,22.06-9.27s12.89,1.5,17.84,6.97c-6.4-.1-16.5.15-21.77,3.35,6.87-1.84,22.75-1.64,28.49,2.48Z"/>
    <g>
      <path class="st5" d="M253.45,445.87v-2.23c1.65-.77,2.99-1.57,4.04-2.39.17-1.15.3-3.02.41-5.61.22-4.72.33-8.16.33-10.3v-18.54c0-.71-.04-3.39-.12-8.04-.08-3.1-.27-5-.58-5.69-.14-.27-.34-.48-.62-.62-.74-.33-2.72-.58-5.93-.74v-3.5l9.56.21c1.9.03,3.71.04,5.44.04,3.76,0,7.95-.04,12.57-.12l8.37-.21c.99,0,2.99.06,6.02.17.27,0,.73.08,1.36.25l.29.54-.78,5.93c-.03.41-.17,2.39-.41,5.93h-3.21c-.06-3.24-.18-5.23-.37-5.98-.11-.38-.27-.66-.49-.82-.36-.25-1.46-.47-3.3-.66-2.72-.3-5.39-.45-7.99-.45-2.45,0-4.95.1-7.5.29-.39,3.11-.58,7.05-.58,11.83v8.45c1.87.14,3.82.21,5.85.21.63,0,2.91-.05,6.84-.16,1.48-.03,2.36-.12,2.62-.29.26-.17.46-.45.6-.87.33-1.04.52-2.79.58-5.23h3.34l-.17,9.07.17,9.02h-3.54c.03-3.19-.18-5.15-.62-5.89-.33-.55-.92-.89-1.77-1.03-1.9-.3-4.33-.45-7.29-.45-2.67,0-4.86.08-6.59.25v17.47c0,1.95.04,3.63.12,5.03,2.23.17,4.86.25,7.91.25s5.71-.1,8.22-.29,4.06-.47,4.64-.82c.19-.11.37-.36.54-.74.49-1.32,1.02-3.82,1.57-7.5h3.38c-.6,5.44-.91,9.92-.91,13.43l-.54.54c-1.76.19-4.26.29-7.5.29l-6.63-.12c-6.54-.08-11.04-.12-13.52-.12-.66,0-5.25.08-13.76.25Z"/>
      <path class="st5" d="M375.08,391.64v-3.42l13.39.25,5.56-.08,5.56-.12,1.52-.04v3.42c-2.97,0-4.85.26-5.65.78-.41.25-.69.73-.82,1.44-.38,1.7-.58,5.45-.58,11.25v9.56l.04,4.82c0,5.03.05,8.13.17,9.31.25,2.58.89,4.66,1.94,6.24,1.04,1.58,2.64,2.86,4.8,3.83,2.16.98,4.9,1.46,8.22,1.46,3.82,0,6.86-.65,9.13-1.96s3.88-3,4.84-5.09c.96-2.09,1.44-6.06,1.44-11.91v-8.41c0-7.25-.01-11.68-.04-13.27-.08-3.46-.27-5.55-.58-6.26-.19-.44-.51-.77-.95-.99-.91-.47-2.88-.74-5.93-.82v-3.42c4.97.19,7.93.29,8.86.29.25,0,.62-.01,1.11-.04l9.15-.25v3.42c-2.55,0-4.16.21-4.82.62-.33.22-.6.64-.8,1.26s-.41,3.4-.6,8.34c-.19,4.95-.29,8.85-.29,11.7v9.68c0,2.47-.18,5.03-.54,7.67-.36,2.64-1.08,4.89-2.16,6.76-1.08,1.87-2.62,3.56-4.59,5.07s-4.33,2.65-7.05,3.42c-2.72.77-5.87,1.15-9.44,1.15-4.18,0-8.08-.56-11.7-1.69-2.64-.82-4.79-1.93-6.47-3.32-1.68-1.39-2.95-2.94-3.83-4.66-.88-1.72-1.42-3.37-1.61-4.97-.14-.99-.21-3.65-.21-8l.04-7.91v-10.47c0-3.85-.08-7.31-.25-10.38-.08-1.21-.25-2.09-.49-2.64-.14-.3-.48-.66-1.03-1.07l-5.36-.58Z"/>
      <path class="st5" d="M472.39,388.22v3.63c-2.78.08-4.42.19-4.95.31-.52.12-.89.28-1.11.45-.22.18-.37.41-.45.68-.19.47-.33,1.36-.41,2.68-.06.71-.1,2.06-.12,4.04-.11,6.76-.17,10.4-.17,10.92v16.61l.12,7.54c0,2.83.14,4.67.41,5.52.11.39.29.68.56.89.26.21.67.37,1.24.49.56.12,2.19.21,4.88.27v3.63c-4.48-.17-9.26-.25-14.34-.25-4.42,0-8.37.08-11.83.25v-3.63c2.86-.11,4.51-.21,4.95-.29.58-.11.97-.26,1.17-.45s.34-.41.39-.66c.08-.33.19-1.62.33-3.87.22-3.3.33-6.35.33-9.15v-17.23c0-5.47-.03-8.98-.08-10.55-.14-3.49-.3-5.67-.5-6.55-.08-.36-.21-.63-.39-.82s-.51-.35-.99-.47c-.48-.12-2.22-.24-5.21-.35v-3.63c3.46.17,7.43.25,11.91.25,5.03,0,9.78-.08,14.26-.25Z"/>
      <path class="st5" d="M492.01,445.87v-3.38c3.3-.11,5.25-.33,5.87-.66.62-.33,1.04-.88,1.26-1.65.3-1.18.45-4.74.45-10.67v-24.69c0-6.73-.04-10.5-.12-11.29h-5.89c-2.97,0-5.58.1-7.83.29-.91.08-1.43.19-1.57.33-.19.17-.36.65-.49,1.44-.36,1.92-.56,4.08-.62,6.47h-3.42c-.11-5.63-.18-8.8-.21-9.52-.08-1.21-.22-2.51-.41-3.92l.37-.41c1.29.14,2.66.23,4.12.29,2.36.08,6.91.12,13.64.12h16.65c6.92,0,11.55-.04,13.89-.12,1.26-.05,2.54-.15,3.83-.29l.41.41c-.25,1.68-.4,3.15-.45,4.41-.03.22-.08,3.23-.17,9.02h-3.42c-.06-2.14-.23-4.19-.54-6.14-.17-.99-.34-1.58-.54-1.77-.17-.14-.6-.23-1.32-.29-2.25-.22-4.96-.33-8.12-.33h-5.89c-.08.96-.12,4.73-.12,11.29v24.69c0,5.93.15,9.51.45,10.71.19.71.6,1.24,1.24,1.59.63.34,2.6.57,5.89.68v3.38c-5.33-.25-9.82-.37-13.48-.37-3.9,0-8.39.12-13.48.37Z"/>
      <path class="st5" d="M529.85,445.87v-3.42c2.23-.16,3.55-.31,3.98-.43.43-.12.79-.32,1.09-.58.3-.26.61-.67.93-1.24.32-.56,1.26-2.66,2.82-6.29.71-1.7,2.09-5.07,4.12-10.1l10.76-26.54,3.63-9.35h5.85l18.42,43.02,2.56,5.65,1.65,3.79c.27.5.54.85.78,1.07.25.22.53.38.85.49.32.11,1.12.21,2.41.29.41.06,1.02.12,1.81.21v3.42l-11.46-.25-14.46.25v-3.42c3.32-.14,5.2-.32,5.63-.56.42-.23.64-.62.64-1.17,0-.69-.32-1.81-.95-3.38l-3.54-9.07h-21.18l-1.81,4.95c-1.37,3.79-2.06,6.15-2.06,7.09,0,.66.22,1.13.66,1.4.66.38,2.62.63,5.89.74v3.42l-9.52-.25-9.48.25ZM548.06,423.58c2.58.08,5.51.12,8.78.12s5.99-.04,8.49-.12l-8.82-21.26-8.45,21.26Z"/>
      <path class="st5" d="M371.81,451.98c-6.17.27-11.82,0-15.73-1.86-3.86-1.83-4.63-2.89-7.2-4.64,4.5-1.4,8.33-3.67,11.51-6.82,5.7-5.66,8.55-13.39,8.55-23.2,0-5.19-.87-9.62-2.6-13.27-1.26-2.69-3.16-5.23-5.69-7.6-2.53-2.38-5.58-4.2-9.17-5.46s-7.93-1.9-13.04-1.9c-5.41,0-10.23.77-14.46,2.31-3.13,1.15-6.09,3.03-8.86,5.62-2.78,2.6-4.91,5.74-6.41,9.44-1.5,3.7-2.25,8.02-2.25,12.96,0,5.44.95,10.25,2.84,14.42,1.24,2.72,3.02,5.23,5.36,7.52,2.33,2.29,5.36,4.14,9.07,5.54,2.53.96,5.39,1.58,8.55,1.88-.96.75-1.62,1.02-2.68,1.4v1.93c3.32-.07,6.9.07,8.9.13,2.63.55,6.24,2.79,11.48,4.71,4.97,1.83,7.63,3.32,13.81,2.39,3.88-.58,6.84-2.85,7.97-4.31.13-.6,1.06-1.19.07-1.19ZM324.01,435.3c-3.27-4.88-4.9-11.48-4.9-19.8,0-3.79.4-7.2,1.22-10.22.81-3.02,1.95-5.47,3.42-7.34,1.47-1.87,3.14-3.27,5.01-4.2,2.5-1.24,5.38-1.85,8.65-1.85,3.63,0,6.57.65,8.84,1.94,2.27,1.29,4.15,3.14,5.65,5.54,1.5,2.4,2.6,5.22,3.32,8.45.71,3.23,1.07,6.59,1.07,10.08,0,5.58-.78,10.28-2.33,14.09-1.55,3.82-3.7,6.55-6.45,8.18-2.75,1.63-5.8,2.45-9.15,2.45-6.29,0-11.07-2.44-14.34-7.31Z"/>
    </g>
    <g>
      <path class="st5" d="M257.71,470.48h-6.69v-3.39h17.25v3.39h-6.69v18.43h-3.88v-18.43Z"/>
      <path class="st5" d="M280.51,467.09h3.36l9.4,21.81h-4.44l-2.03-4.99h-9.46l-1.97,4.99h-4.34l9.49-21.81ZM285.44,480.59l-3.36-8.87-3.42,8.87h6.78Z"/>
      <path class="st5" d="M300.14,467.09h3.88v18.36h9.27v3.45h-13.16v-21.81Z"/>
      <path class="st5" d="M320.59,467.09h14.45v3.39h-10.57v5.55h10.01v3.27h-10.01v6.16h11.12v3.45h-15v-21.81Z"/>
      <path class="st5" d="M344.1,467.09h5.15l10.14,16.33h.06v-16.33h3.88v21.81h-4.93l-10.35-16.85h-.06v16.85h-3.88v-21.81Z"/>
      <path class="st5" d="M377.25,470.48h-6.69v-3.39h17.25v3.39h-6.69v18.43h-3.88v-18.43Z"/>
      <path class="st5" d="M406.74,467.09h7.12c1.25,0,2.38.11,3.39.34,1.01.23,1.87.6,2.59,1.11s1.27,1.17,1.66,1.97c.39.8.59,1.77.59,2.9,0,1.21-.23,2.23-.68,3.05-.45.82-1.06,1.48-1.83,1.99-.77.5-1.67.87-2.7,1.09-1.03.23-2.12.34-3.27.34h-2.99v9.03h-3.88v-21.81ZM413.33,476.61c.64,0,1.24-.05,1.82-.14.58-.09,1.09-.26,1.54-.49.45-.24.81-.56,1.08-.97.27-.41.4-.94.4-1.6s-.13-1.16-.4-1.56c-.27-.4-.62-.71-1.06-.94-.44-.23-.94-.38-1.51-.45-.56-.07-1.15-.11-1.74-.11h-2.83v6.26h2.71Z"/>
      <path class="st5" d="M435.24,467.09h3.36l9.4,21.81h-4.44l-2.03-4.99h-9.46l-1.97,4.99h-4.34l9.49-21.81ZM440.17,480.59l-3.36-8.87-3.42,8.87h6.78Z"/>
      <path class="st5" d="M454.86,467.09h7.58c1.03,0,2.02.11,2.99.32.97.22,1.82.57,2.57,1.06.75.49,1.35,1.14,1.8,1.94.45.8.68,1.78.68,2.93,0,1.58-.45,2.87-1.34,3.87s-2.11,1.67-3.65,2.02l5.82,9.67h-4.68l-5.05-9.24h-2.83v9.24h-3.88v-21.81ZM461.92,476.49c.55,0,1.11-.04,1.66-.12.55-.08,1.05-.24,1.5-.46.44-.23.81-.55,1.09-.97.29-.42.43-.96.43-1.62,0-.6-.13-1.08-.4-1.46-.27-.38-.61-.68-1.02-.91-.41-.23-.88-.38-1.4-.46-.52-.08-1.03-.12-1.53-.12h-3.51v6.13h3.17Z"/>
      <path class="st5" d="M482.99,470.48h-6.69v-3.39h17.25v3.39h-6.69v18.43h-3.88v-18.43Z"/>
      <path class="st5" d="M500.8,467.09h5.15l10.14,16.33h.06v-16.33h3.88v21.81h-4.93l-10.35-16.85h-.06v16.85h-3.88v-21.81Z"/>
      <path class="st5" d="M529.55,467.09h14.45v3.39h-10.57v5.55h10.01v3.27h-10.01v6.16h11.12v3.45h-15v-21.81Z"/>
      <path class="st5" d="M553.06,467.09h7.58c1.03,0,2.02.11,2.99.32.97.22,1.82.57,2.57,1.06.75.49,1.35,1.14,1.8,1.94.45.8.68,1.78.68,2.93,0,1.58-.45,2.87-1.34,3.87s-2.11,1.67-3.65,2.02l5.82,9.67h-4.68l-5.05-9.24h-2.83v9.24h-3.88v-21.81ZM560.11,476.49c.55,0,1.11-.04,1.66-.12.55-.08,1.05-.24,1.5-.46.44-.23.81-.55,1.09-.97.29-.42.43-.96.43-1.62,0-.6-.13-1.08-.4-1.46-.27-.38-.61-.68-1.02-.91-.41-.23-.88-.38-1.4-.46-.52-.08-1.03-.12-1.53-.12h-3.51v6.13h3.17Z"/>
      <path class="st5" d="M588.27,471.65c-.41-.53-.99-.98-1.74-1.34-.75-.36-1.5-.54-2.26-.54-.45,0-.9.06-1.36.17-.45.11-.86.29-1.23.52-.37.24-.67.54-.91.92-.24.38-.35.84-.35,1.37,0,.49.1.91.31,1.26.21.35.49.65.85.89.36.25.8.46,1.31.65s1.08.37,1.69.55c.7.23,1.42.48,2.17.77.75.29,1.44.67,2.06,1.14.63.47,1.14,1.07,1.54,1.79s.6,1.61.6,2.68c0,1.17-.22,2.19-.65,3.07-.43.87-1.01,1.6-1.73,2.17-.72.58-1.56,1.01-2.53,1.29-.97.29-1.98.43-3.05.43-1.42,0-2.8-.26-4.16-.79-1.36-.52-2.46-1.3-3.33-2.33l2.77-2.59c.53.74,1.25,1.33,2.14,1.76.89.43,1.77.65,2.63.65.45,0,.91-.06,1.39-.17.47-.11.9-.3,1.28-.57s.69-.6.92-1c.24-.4.35-.9.35-1.5s-.13-1.05-.4-1.43c-.27-.38-.63-.71-1.08-.99s-.99-.52-1.6-.72c-.62-.21-1.26-.42-1.94-.65-.66-.21-1.31-.45-1.97-.74-.66-.29-1.25-.67-1.77-1.14-.52-.47-.95-1.05-1.28-1.74-.33-.69-.49-1.55-.49-2.57,0-1.11.23-2.06.69-2.87.46-.8,1.07-1.46,1.82-1.99.75-.52,1.6-.91,2.56-1.17.96-.26,1.93-.38,2.91-.38,1.11,0,2.23.2,3.37.58,1.14.39,2.13.98,2.97,1.76l-2.53,2.77Z"/>
    </g>
    <rect class="st2" x="889.7" y="277.89" width="159.66" height="69.89"/>
    <rect class="st6" x="884.02" y="155.16" width="160.8" height="70.45"/>
    <path class="st5" d="M464.9,267.58c4,4.7,14.1,10.41,22.98,9.17,8.88-1.24,19.42-7.23,23.65-12.7-5.88-5.37-16.18-9.17-22.06-9.27-5.88-.1-12.89,1.5-17.84,6.97,6.4-.1,16.5.15,21.77,3.35-6.87-1.84-22.75-1.64-28.49,2.48Z"/>
    <circle class="st5" cx="419.3" cy="155.75" r="19.13"/>
  </g>
</svg>
